# xmcd
#
# Track frame offsets:
#	182
#	19587
#	35815
#	53797
#	79585
#	96142
#	111060
#	129560
#	145417
#	164840
#	180472
#	198580
#	217172
#	239222
#
# Disc length: 3370 seconds
#
# Revision: 1
# Processed by: cddbd v1.5.1PL2 Copyright (c) Steve Scherf et al.
# Submitted via: audiograbber 1.83.01
#
DISCID=d20d280e
DTITLE=Pino Daniele - Blues Latino and Melodie
DYEAR=1994
DGENRE=Italo-Jazz/Pop
TTITLE0=Che Dio Ti Benedica
TTITLE1=Yes I Know My Way
TTITLE2=Anna Verá
TTITLE3=Napule è
TTITLE4=Quando
TTITLE5=Invece No
TTITLE6=Occhi Blu Non Mi Mollare
TTITLE7=Soleado Up And Down
TTITLE8=Sicily
TTITLE9=Terra Mia
TTITLE10=Chi Tene 'O Mare
TTITLE11=Sotto 'O Sole
TTITLE12=Sono Un Cantante Di Blues
TTITLE13=Toledo
EXTD=
EXTT0=
EXTT1=
EXTT2=
EXTT3=
EXTT4=
EXTT5=
EXTT6=
EXTT7=
EXTT8=
EXTT9=
EXTT10=
EXTT11=
EXTT12=
EXTT13=
PLAYORDER=
